<?xml version="1.0" encoding="UTF-8"?>
<!DOCTYPE svg PUBLIC "-//W3C//DTD SVG 1.1//EN" "http://www.w3.org/Graphics/SVG/1.1/DTD/svg11.dtd">
<!-- Creator: CorelDRAW 2020 (64-Bit) -->
<svg xmlns="http://www.w3.org/2000/svg" xml:space="preserve" width="279.4mm" height="84.6666mm" version="1.1" style="shape-rendering:geometricPrecision; text-rendering:geometricPrecision; image-rendering:optimizeQuality; fill-rule:evenodd; clip-rule:evenodd"
viewBox="0 0 27939.98 8466.66"
 xmlns:xlink="http://www.w3.org/1999/xlink"
 xmlns:xodm="http://www.corel.com/coreldraw/odm/2003">
 <defs>
  <style type="text/css">
   <![CDATA[
    .fil0 {fill:#25B579}
    .fil1 {fill:#323640}
   ]]>
  </style>
 </defs>
 <g id="Capa_x0020_1">
  <metadata id="CorelCorpID_0Corel-Layer"/>
  <g id="_1894278116688">
   <path class="fil0" d="M6559.73 6175.74l-712.44 -346.1c-1697.66,1672.27 -4303.26,363.99 -4220.92,-1779.91 42.26,-1100.83 763.28,-1871.72 1564.47,-2191.49 482.69,-192.65 1098.86,-210.1 1608.02,-51.62 220.03,68.5 473.02,185.9 630.59,300.61 285.64,207.95 177.54,130.44 381.53,321.04 33.24,31.05 101.09,96.82 134.25,114.66 158.2,-69.38 576.58,-257.69 694.58,-341.71 -26.32,-27.77 -37.13,-49.83 -63.25,-81.86 -27.05,-33.21 -48.71,-51.2 -74.73,-83.17l-228.8 -245.31c-245.9,-240.22 -733.3,-536.53 -1076.72,-662.31 -680.58,-249.24 -1472.78,-272.2 -2165.04,-27.38 -2044.78,723.13 -2814.48,3151.74 -1581.51,4897.67 1012.91,1434.3 3025.53,1800.58 4447.79,796.93 247.44,-174.62 434.27,-337.78 627.37,-567.62 41.2,-49.05 16.58,-4.92 34.81,-52.43z"/>
   <path class="fil1" d="M12560.42 4057.09l-1508 -3.9 -4.82 370.46 1074.44 0.14c121.14,1325.46 -2197.42,1480.2 -2361.83,-60.41 -132,-1236.84 1019.8,-1700.07 1793.21,-1337.04 349.03,163.83 397.64,359.63 522.36,597.08l430.1 -0.62c-12.2,-188.12 -145.72,-418.38 -230.69,-527.4 -841.8,-1080.06 -3309.14,-588.67 -2953.94,1426.95 166.15,942.87 951.83,1353.02 1858.75,1306.46 1049.05,-53.83 1429.19,-825.18 1380.42,-1771.72z"/>
   <path class="fil1" d="M17757.11 4059.56l-1510.83 -6.08 -2.01 362.22 1074.77 8.63c104.43,1343.53 -2199.79,1463.13 -2362.45,-58.65 -167.94,-1571.21 1723.73,-1860.24 2231.59,-931.89 29.54,53.96 53.58,139.41 86.24,187.14l428.62 1.62c-50.93,-416.32 -380.97,-743.52 -659.65,-887.25 -1091.09,-562.79 -2817.07,72.82 -2526.51,1787.18 79.46,468.73 328.94,786.57 598.29,984.82 339.21,249.67 737.86,349.54 1263.64,321.41 1044.64,-55.87 1420.06,-817.42 1378.3,-1769.15z"/>
   <path class="fil1" d="M18105.68 5803.67c559.15,1.95 425.09,83.25 597.33,-324.57 128.99,-305.48 956.2,-2339.2 1024.44,-2459.11l1164.35 2784.99 472.75 0.37c-82.92,-251.48 -228.22,-553.41 -334.75,-802.86 -115.37,-270.19 -227.71,-537.79 -343.92,-815.26l-515.84 -1223.23c-27.29,-64.39 -55.77,-132.19 -83.78,-197.23 -109.51,-254.36 4.82,-196.71 -616.66,-196.25l-1363.92 3233.15z"/>
   <polygon class="fil0" points="4153.63,4524.68 7280.21,4524.68 7280.21,3751.82 7262.58,3751.82 4171.18,3751.82 4153.63,3751.82 "/>
   <polygon class="fil1" points="23688.94,2920.37 25068.88,2923.53 25068.88,5830.74 25478.77,5830.74 25478.87,2925.14 26859.6,2922.86 26861.76,2546.54 23692.86,2544.96 "/>
   <polygon class="fil1" points="13287.33,5806.8 13743.92,5806.88 13743.92,2557.43 13287.33,2557.45 "/>
   <polygon class="fil1" points="22859.98,5842.01 23281.53,5842.01 23281.53,2522.31 22859.98,2522.31 "/>
  </g>
 </g>
</svg>
